<svg id="visual" viewBox="0 0 1280 720" width="1280" height="720" xmlns="http://www.w3.org/2000/svg" xmlns:xlink="http://www.w3.org/1999/xlink" version="1.1"><path d="M0 37L26.7 40.7C53.3 44.3 106.7 51.7 160 50.5C213.3 49.3 266.7 39.7 320 40.8C373.3 42 426.7 54 480 62.3C533.3 70.7 586.7 75.3 640 71.7C693.3 68 746.7 56 800 47.7C853.3 39.3 906.7 34.7 960 41.8C1013.3 49 1066.7 68 1120 75.2C1173.3 82.3 1226.7 77.7 1253.3 75.3L1280 73L1280 0L1253.3 0C1226.7 0 1173.3 0 1120 0C1066.7 0 1013.3 0 960 0C906.7 0 853.3 0 800 0C746.7 0 693.3 0 640 0C586.7 0 533.3 0 480 0C426.7 0 373.3 0 320 0C266.7 0 213.3 0 160 0C106.7 0 53.3 0 26.7 0L0 0Z" fill="#00caa0"></path><path d="M0 167L26.7 167C53.3 167 106.7 167 160 170.5C213.3 174 266.7 181 320 173.7C373.3 166.3 426.7 144.7 480 143.5C533.3 142.3 586.7 161.7 640 166.5C693.3 171.3 746.7 161.7 800 159.3C853.3 157 906.7 162 960 169.2C1013.3 176.3 1066.7 185.7 1120 182C1173.3 178.3 1226.7 161.7 1253.3 153.3L1280 145L1280 71L1253.3 73.3C1226.7 75.7 1173.3 80.3 1120 73.2C1066.7 66 1013.3 47 960 39.8C906.7 32.7 853.3 37.3 800 45.7C746.7 54 693.3 66 640 69.7C586.7 73.3 533.3 68.7 480 60.3C426.7 52 373.3 40 320 38.8C266.7 37.7 213.3 47.3 160 48.5C106.7 49.7 53.3 42.3 26.7 38.7L0 35Z" fill="#00a89f"></path><path d="M0 275L26.7 271.3C53.3 267.7 106.7 260.3 160 251.8C213.3 243.3 266.7 233.7 320 224C373.3 214.3 426.7 204.7 480 207.2C533.3 209.7 586.7 224.3 640 234C693.3 243.7 746.7 248.3 800 251.8C853.3 255.3 906.7 257.7 960 254C1013.3 250.3 1066.7 240.7 1120 234.7C1173.3 228.7 1226.7 226.3 1253.3 225.2L1280 224L1280 143L1253.3 151.3C1226.7 159.7 1173.3 176.3 1120 180C1066.7 183.7 1013.3 174.3 960 167.2C906.7 160 853.3 155 800 157.3C746.7 159.7 693.3 169.3 640 164.5C586.7 159.7 533.3 140.3 480 141.5C426.7 142.7 373.3 164.3 320 171.7C266.7 179 213.3 172 160 168.5C106.7 165 53.3 165 26.7 165L0 165Z" fill="#008592"></path><path d="M0 368L26.7 371.7C53.3 375.3 106.7 382.7 160 379.2C213.3 375.7 266.7 361.3 320 372.2C373.3 383 426.7 419 480 414.2C533.3 409.3 586.7 363.7 640 360C693.3 356.3 746.7 394.7 800 399.5C853.3 404.3 906.7 375.7 960 363.7C1013.3 351.7 1066.7 356.3 1120 371.8C1173.3 387.3 1226.7 413.7 1253.3 426.8L1280 440L1280 222L1253.3 223.2C1226.7 224.3 1173.3 226.7 1120 232.7C1066.7 238.7 1013.3 248.3 960 252C906.7 255.7 853.3 253.3 800 249.8C746.7 246.3 693.3 241.7 640 232C586.7 222.3 533.3 207.7 480 205.2C426.7 202.7 373.3 212.3 320 222C266.7 231.7 213.3 241.3 160 249.8C106.7 258.3 53.3 265.7 26.7 269.3L0 273Z" fill="#006378"></path><path d="M0 419L26.7 431C53.3 443 106.7 467 160 470.5C213.3 474 266.7 457 320 466.5C373.3 476 426.7 512 480 506C533.3 500 586.7 452 640 452C693.3 452 746.7 500 800 510.8C853.3 521.7 906.7 495.3 960 483.3C1013.3 471.3 1066.7 473.7 1120 476C1173.3 478.3 1226.7 480.7 1253.3 481.8L1280 483L1280 438L1253.3 424.8C1226.7 411.7 1173.3 385.3 1120 369.8C1066.7 354.3 1013.3 349.7 960 361.7C906.7 373.7 853.3 402.3 800 397.5C746.7 392.7 693.3 354.3 640 358C586.7 361.7 533.3 407.3 480 412.2C426.7 417 373.3 381 320 370.2C266.7 359.3 213.3 373.7 160 377.2C106.7 380.7 53.3 373.3 26.7 369.7L0 366Z" fill="#114358"></path><path d="M0 476L26.7 484.5C53.3 493 106.7 510 160 512.5C213.3 515 266.7 503 320 517.3C373.3 531.7 426.7 572.3 480 567.5C533.3 562.7 586.7 512.3 640 514.7C693.3 517 746.7 572 800 578C853.3 584 906.7 541 960 524.3C1013.3 507.7 1066.7 517.3 1120 526.8C1173.3 536.3 1226.7 545.7 1253.3 550.3L1280 555L1280 481L1253.3 479.8C1226.7 478.7 1173.3 476.3 1120 474C1066.7 471.7 1013.3 469.3 960 481.3C906.7 493.3 853.3 519.7 800 508.8C746.7 498 693.3 450 640 450C586.7 450 533.3 498 480 504C426.7 510 373.3 474 320 464.5C266.7 455 213.3 472 160 468.5C106.7 465 53.3 441 26.7 429L0 417Z" fill="#102636"></path><path d="M0 721L26.7 721C53.3 721 106.7 721 160 721C213.3 721 266.7 721 320 721C373.3 721 426.7 721 480 721C533.3 721 586.7 721 640 721C693.3 721 746.7 721 800 721C853.3 721 906.7 721 960 721C1013.3 721 1066.7 721 1120 721C1173.3 721 1226.7 721 1253.3 721L1280 721L1280 553L1253.3 548.3C1226.7 543.7 1173.3 534.3 1120 524.8C1066.7 515.3 1013.3 505.7 960 522.3C906.7 539 853.3 582 800 576C746.7 570 693.3 515 640 512.7C586.7 510.3 533.3 560.7 480 565.5C426.7 570.3 373.3 529.7 320 515.3C266.7 501 213.3 513 160 510.5C106.7 508 53.3 491 26.7 482.5L0 474Z" fill="#000715"></path></svg>