<svg id="visual" viewBox="0 0 1280 720" width="1280" height="720" xmlns="http://www.w3.org/2000/svg" xmlns:xlink="http://www.w3.org/1999/xlink" version="1.1"><rect x="0" y="0" width="1280" height="720" fill="#000715"></rect><path d="M0 515L30.5 516.2C61 517.3 122 519.7 183 516C244 512.3 305 502.7 366 502.2C427 501.7 488 510.3 548.8 511.7C609.7 513 670.3 507 731.2 503.3C792 499.7 853 498.3 914 496.3C975 494.3 1036 491.7 1097 494.5C1158 497.3 1219 505.7 1249.5 509.8L1280 514L1280 721L1249.5 721C1219 721 1158 721 1097 721C1036 721 975 721 914 721C853 721 792 721 731.2 721C670.3 721 609.7 721 548.8 721C488 721 427 721 366 721C305 721 244 721 183 721C122 721 61 721 30.5 721L0 721Z" fill="#fa7268"></path><path d="M0 499L30.5 506.8C61 514.7 122 530.3 183 528.8C244 527.3 305 508.7 366 496.5C427 484.3 488 478.7 548.8 477.7C609.7 476.7 670.3 480.3 731.2 490.8C792 501.3 853 518.7 914 527C975 535.3 1036 534.7 1097 527.2C1158 519.7 1219 505.3 1249.5 498.2L1280 491L1280 721L1249.5 721C1219 721 1158 721 1097 721C1036 721 975 721 914 721C853 721 792 721 731.2 721C670.3 721 609.7 721 548.8 721C488 721 427 721 366 721C305 721 244 721 183 721C122 721 61 721 30.5 721L0 721Z" fill="#ef5f67"></path><path d="M0 614L30.5 599.2C61 584.3 122 554.7 183 554C244 553.3 305 581.7 366 582.5C427 583.3 488 556.7 548.8 549.7C609.7 542.7 670.3 555.3 731.2 564.2C792 573 853 578 914 573.8C975 569.7 1036 556.3 1097 558.7C1158 561 1219 579 1249.5 588L1280 597L1280 721L1249.5 721C1219 721 1158 721 1097 721C1036 721 975 721 914 721C853 721 792 721 731.2 721C670.3 721 609.7 721 548.8 721C488 721 427 721 366 721C305 721 244 721 183 721C122 721 61 721 30.5 721L0 721Z" fill="#e34c67"></path><path d="M0 622L30.5 623.2C61 624.3 122 626.7 183 626.5C244 626.3 305 623.7 366 619.7C427 615.7 488 610.3 548.8 613.8C609.7 617.3 670.3 629.7 731.2 627.8C792 626 853 610 914 606C975 602 1036 610 1097 610.3C1158 610.7 1219 603.3 1249.5 599.7L1280 596L1280 721L1249.5 721C1219 721 1158 721 1097 721C1036 721 975 721 914 721C853 721 792 721 731.2 721C670.3 721 609.7 721 548.8 721C488 721 427 721 366 721C305 721 244 721 183 721C122 721 61 721 30.5 721L0 721Z" fill="#d53867"></path><path d="M0 651L30.5 651.5C61 652 122 653 183 659.2C244 665.3 305 676.7 366 680.2C427 683.7 488 679.3 548.8 678.7C609.7 678 670.3 681 731.2 683.2C792 685.3 853 686.7 914 685C975 683.3 1036 678.7 1097 671.8C1158 665 1219 656 1249.5 651.5L1280 647L1280 721L1249.5 721C1219 721 1158 721 1097 721C1036 721 975 721 914 721C853 721 792 721 731.2 721C670.3 721 609.7 721 548.8 721C488 721 427 721 366 721C305 721 244 721 183 721C122 721 61 721 30.5 721L0 721Z" fill="#c62368"></path></svg>